STARTFONT 2.1
COMMENT Copyright (C) 1994-1995 Cronyx Ltd.
COMMENT Changes Copyright (C) 1996-1997 by Andrey A. Chernov, Moscow, Russia.
COMMENT Designed by Serge Vakulenko, <vak@cronyx.ru>
COMMENT Changes 1999, 2000 by Serge Winitzki.
COMMENT This software may be used, modified, copied, distributed, and sold,
COMMENT in both source and binary form provided that the copyright
COMMENT and these terms are retained. Under no circumstances is the author
COMMENT responsible for the proper functioning of this software, nor does
COMMENT the author assume any responsibility for damages incurred with its use.
COMMENT $XFree86$
FONT -Misc-Fixed-Medium-R-SemiCondensed--13-120-75-75-C-60-KOI8-R
SIZE 13 75 75
FONTBOUNDINGBOX 6 18 0 -5
STARTPROPERTIES 21
FONTNAME_REGISTRY ""
FOUNDRY "Misc"
FAMILY_NAME "Fixed"
WEIGHT_NAME "Medium"
SLANT "R"
SETWIDTH_NAME "SemiCondensed"
ADD_STYLE_NAME ""
PIXEL_SIZE 13
POINT_SIZE 120
RESOLUTION_X 75
RESOLUTION_Y 75
SPACING "C"
AVERAGE_WIDTH 60
CHARSET_REGISTRY "KOI8"
CHARSET_ENCODING "R"
DEFAULT_CHAR 0
FONT_DESCENT 3
FONT_ASCENT 10
COPYRIGHT "Copyright (C) 1994 Cronyx Ltd., Portions Copyright (C) 1996-1997 by Andrey A. Chernov, Moscow, Russia."
_XMBDFED_INFO "Edited with xmbdfed 4.3."
_XFREE86_GLYPH_RANGES "0_126 149 152_154 156_158 163 179 191_255"
ENDPROPERTIES
CHARS 201
STARTCHAR ascii000
ENCODING 0
SWIDTH 443 0
DWIDTH 6 0
BBX 6 8 0 -1
BITMAP
88
00
00
88
00
00
00
88
ENDCHAR
STARTCHAR uni25C6
ENCODING 1
SWIDTH 443 0
DWIDTH 6 0
BBX 6 5 0 1
BITMAP
20
70
F8
70
20
ENDCHAR
STARTCHAR shade
ENCODING 2
SWIDTH 443 0
DWIDTH 6 0
BBX 6 13 0 -3
BITMAP
A8
54
A8
54
A8
54
A8
54
A8
54
A8
54
A8
ENDCHAR
STARTCHAR uni2409
ENCODING 3
SWIDTH 443 0
DWIDTH 6 0
BBX 6 9 0 -1
BITMAP
A0
A0
E0
A0
A0
38
10
10
10
ENDCHAR
STARTCHAR uni240C
ENCODING 4
SWIDTH 443 0
DWIDTH 6 0
BBX 6 9 0 -1
BITMAP
E0
80
C0
80
B8
20
30
20
20
ENDCHAR
STARTCHAR uni240D
ENCODING 5
SWIDTH 443 0
DWIDTH 6 0
BBX 6 9 0 -1
BITMAP
60
80
80
60
30
28
30
28
28
ENDCHAR
STARTCHAR uni240A
ENCODING 6
SWIDTH 443 0
DWIDTH 6 0
BBX 6 9 0 -1
BITMAP
80
80
80
E0
38
20
30
20
20
ENDCHAR
STARTCHAR degree
ENCODING 7
SWIDTH 443 0
DWIDTH 6 0
BBX 6 4 0 4
BITMAP
30
48
48
30
ENDCHAR
STARTCHAR plusminus
ENCODING 8
SWIDTH 443 0
DWIDTH 6 0
BBX 6 7 0 0
BITMAP
20
20
F8
20
20
00
F8
ENDCHAR
STARTCHAR uni2424
ENCODING 9
SWIDTH 443 0
DWIDTH 6 0
BBX 6 9 0 -1
BITMAP
90
D0
B0
90
20
20
20
20
38
ENDCHAR
STARTCHAR uni240B
ENCODING 10
SWIDTH 443 0
DWIDTH 6 0
BBX 6 9 0 -1
BITMAP
A0
A0
A0
40
40
38
10
10
10
ENDCHAR
STARTCHAR SF040000
ENCODING 11
SWIDTH 443 0
DWIDTH 6 0
BBX 6 7 0 3
BITMAP
20
20
20
20
20
20
E0
ENDCHAR
STARTCHAR SF030000
ENCODING 12
SWIDTH 443 0
DWIDTH 6 0
BBX 6 7 0 -3
BITMAP
E0
20
20
20
20
20
20
ENDCHAR
STARTCHAR SF010000
ENCODING 13
SWIDTH 443 0
DWIDTH 6 0
BBX 6 7 0 -3
BITMAP
3C
20
20
20
20
20
20
ENDCHAR
STARTCHAR SF020000
ENCODING 14
SWIDTH 443 0
DWIDTH 6 0
BBX 6 7 0 3
BITMAP
20
20
20
20
20
20
3C
ENDCHAR
STARTCHAR SF050000
ENCODING 15
SWIDTH 443 0
DWIDTH 6 0
BBX 6 13 0 -3
BITMAP
20
20
20
20
20
20
FC
20
20
20
20
20
20
ENDCHAR
STARTCHAR char16
ENCODING 16
SWIDTH 443 0
DWIDTH 6 0
BBX 6 1 0 5
BITMAP
FC
ENDCHAR
STARTCHAR char17
ENCODING 17
SWIDTH 443 0
DWIDTH 6 0
BBX 6 1 0 3
BITMAP
FC
ENDCHAR
STARTCHAR char18
ENCODING 18
SWIDTH 443 0
DWIDTH 6 0
BBX 6 1 0 1
BITMAP
FC
ENDCHAR
STARTCHAR char19
ENCODING 19
SWIDTH 443 0
DWIDTH 6 0
BBX 6 1 0 -1
BITMAP
FC
ENDCHAR
STARTCHAR char20
ENCODING 20
SWIDTH 443 0
DWIDTH 6 0
BBX 6 1 0 -3
BITMAP
FC
ENDCHAR
STARTCHAR SF080000
ENCODING 21
SWIDTH 443 0
DWIDTH 6 0
BBX 6 13 0 -3
BITMAP
20
20
20
20
20
20
3C
20
20
20
20
20
20
ENDCHAR
STARTCHAR SF090000
ENCODING 22
SWIDTH 443 0
DWIDTH 6 0
BBX 6 13 0 -3
BITMAP
20
20
20
20
20
20
E0
20
20
20
20
20
20
ENDCHAR
STARTCHAR SF070000
ENCODING 23
SWIDTH 443 0
DWIDTH 6 0
BBX 6 7 0 3
BITMAP
20
20
20
20
20
20
FC
ENDCHAR
STARTCHAR SF060000
ENCODING 24
SWIDTH 443 0
DWIDTH 6 0
BBX 6 7 0 -3
BITMAP
FC
20
20
20
20
20
20
ENDCHAR
STARTCHAR SF110000
ENCODING 25
SWIDTH 443 0
DWIDTH 6 0
BBX 6 13 0 -3
BITMAP
20
20
20
20
20
20
20
20
20
20
20
20
20
ENDCHAR
STARTCHAR lessequal
ENCODING 26
SWIDTH 443 0
DWIDTH 6 0
BBX 6 7 0 0
BITMAP
18
60
80
60
18
00
F8
ENDCHAR
STARTCHAR greaterequal
ENCODING 27
SWIDTH 443 0
DWIDTH 6 0
BBX 6 7 0 0
BITMAP
C0
30
08
30
C0
00
F8
ENDCHAR
STARTCHAR pi
ENCODING 28
SWIDTH 443 0
DWIDTH 6 0
BBX 6 6 0 -1
BITMAP
F8
50
50
50
50
50
ENDCHAR
STARTCHAR notequal
ENCODING 29
SWIDTH 443 0
DWIDTH 6 0
BBX 6 5 0 0
BITMAP
08
F8
20
F8
80
ENDCHAR
STARTCHAR sterling
ENCODING 30
SWIDTH 443 0
DWIDTH 6 0
BBX 6 9 0 -1
BITMAP
30
48
40
40
E0
40
40
48
B0
ENDCHAR
STARTCHAR periodcentered
ENCODING 31
SWIDTH 443 0
DWIDTH 6 0
BBX 6 1 0 3
BITMAP
30
ENDCHAR
STARTCHAR space
ENCODING 32
SWIDTH 443 0
DWIDTH 6 0
BBX 0 0 0 0
BITMAP
ENDCHAR
STARTCHAR exclam
ENCODING 33
SWIDTH 443 0
DWIDTH 6 0
BBX 6 9 0 -1
BITMAP
20
20
20
20
20
20
20
00
20
ENDCHAR
STARTCHAR quotedbl
ENCODING 34
SWIDTH 443 0
DWIDTH 6 0
BBX 6 3 0 5
BITMAP
50
50
50
ENDCHAR
STARTCHAR numbersign
ENCODING 35
SWIDTH 443 0
DWIDTH 6 0
BBX 6 7 0 0
BITMAP
50
50
F8
50
F8
50
50
ENDCHAR
STARTCHAR dollar
ENCODING 36
SWIDTH 443 0
DWIDTH 6 0
BBX 6 9 0 -1
BITMAP
20
78
A0
A0
70
28
28
F0
20
ENDCHAR
STARTCHAR percent
ENCODING 37
SWIDTH 443 0
DWIDTH 6 0
BBX 6 9 0 -1
BITMAP
48
A8
50
10
20
40
50
A8
90
ENDCHAR
STARTCHAR ampersand
ENCODING 38
SWIDTH 443 0
DWIDTH 6 0
BBX 6 8 0 -1
BITMAP
40
A0
A0
40
A0
98
90
68
ENDCHAR
STARTCHAR quotesingle
ENCODING 39
SWIDTH 443 0
DWIDTH 6 0
BBX 6 3 0 5
BITMAP
20
20
20
ENDCHAR
STARTCHAR parenleft
ENCODING 40
SWIDTH 443 0
DWIDTH 6 0
BBX 6 11 0 -2
BITMAP
10
20
20
40
40
40
40
40
20
20
10
ENDCHAR
STARTCHAR parenright
ENCODING 41
SWIDTH 443 0
DWIDTH 6 0
BBX 6 11 0 -2
BITMAP
40
20
20
10
10
10
10
10
20
20
40
ENDCHAR
STARTCHAR asterisk
ENCODING 42
SWIDTH 443 0
DWIDTH 6 0
BBX 6 7 0 0
BITMAP
20
A8
F8
70
F8
A8
20
ENDCHAR
STARTCHAR plus
ENCODING 43
SWIDTH 443 0
DWIDTH 6 0
BBX 6 5 0 1
BITMAP
20
20
F8
20
20
ENDCHAR
STARTCHAR comma
ENCODING 44
SWIDTH 443 0
DWIDTH 6 0
BBX 6 3 0 -2
BITMAP
30
20
40
ENDCHAR
STARTCHAR hyphen
ENCODING 45
SWIDTH 443 0
DWIDTH 6 0
BBX 6 1 0 3
BITMAP
F8
ENDCHAR
STARTCHAR period
ENCODING 46
SWIDTH 443 0
DWIDTH 6 0
BBX 6 3 0 -2
BITMAP
20
70
20
ENDCHAR
STARTCHAR slash
ENCODING 47
SWIDTH 443 0
DWIDTH 6 0
BBX 6 9 0 -1
BITMAP
08
08
10
10
20
40
40
80
80
ENDCHAR
STARTCHAR zero
ENCODING 48
SWIDTH 443 0
DWIDTH 6 0
BBX 6 9 0 -1
BITMAP
20
50
88
88
88
88
88
50
20
ENDCHAR
STARTCHAR one
ENCODING 49
SWIDTH 443 0
DWIDTH 6 0
BBX 6 9 0 -1
BITMAP
20
60
A0
20
20
20
20
20
F8
ENDCHAR
STARTCHAR two
ENCODING 50
SWIDTH 443 0
DWIDTH 6 0
BBX 6 9 0 -1
BITMAP
70
88
88
08
10
20
40
80
F8
ENDCHAR
STARTCHAR three
ENCODING 51
SWIDTH 443 0
DWIDTH 6 0
BBX 6 9 0 -1
BITMAP
F8
08
10
20
70
08
08
88
70
ENDCHAR
STARTCHAR four
ENCODING 52
SWIDTH 443 0
DWIDTH 6 0
BBX 6 9 0 -1
BITMAP
10
10
30
50
50
90
F8
10
10
ENDCHAR
STARTCHAR five
ENCODING 53
SWIDTH 443 0
DWIDTH 6 0
BBX 6 9 0 -1
BITMAP
F8
80
80
B0
C8
08
08
88
70
ENDCHAR
STARTCHAR six
ENCODING 54
SWIDTH 443 0
DWIDTH 6 0
BBX 6 9 0 -1
BITMAP
70
88
80
80
F0
88
88
88
70
ENDCHAR
STARTCHAR seven
ENCODING 55
SWIDTH 443 0
DWIDTH 6 0
BBX 6 9 0 -1
BITMAP
F8
08
10
10
20
20
40
40
40
ENDCHAR
STARTCHAR eight
ENCODING 56
SWIDTH 443 0
DWIDTH 6 0
BBX 6 9 0 -1
BITMAP
70
88
88
88
70
88
88
88
70
ENDCHAR
STARTCHAR nine
ENCODING 57
SWIDTH 443 0
DWIDTH 6 0
BBX 6 9 0 -1
BITMAP
70
88
88
88
78
08
08
88
70
ENDCHAR
STARTCHAR colon
ENCODING 58
SWIDTH 443 0
DWIDTH 6 0
BBX 6 8 0 -2
BITMAP
20
70
20
00
00
20
70
20
ENDCHAR
STARTCHAR semicolon
ENCODING 59
SWIDTH 443 0
DWIDTH 6 0
BBX 6 8 0 -2
BITMAP
20
70
20
00
00
30
20
40
ENDCHAR
STARTCHAR less
ENCODING 60
SWIDTH 443 0
DWIDTH 6 0
BBX 6 9 0 -1
BITMAP
08
10
20
40
80
40
20
10
08
ENDCHAR
STARTCHAR equal
ENCODING 61
SWIDTH 443 0
DWIDTH 6 0
BBX 6 4 0 1
BITMAP
F8
00
00
F8
ENDCHAR
STARTCHAR greater
ENCODING 62
SWIDTH 443 0
DWIDTH 6 0
BBX 6 9 0 -1
BITMAP
80
40
20
10
08
10
20
40
80
ENDCHAR
STARTCHAR question
ENCODING 63
SWIDTH 443 0
DWIDTH 6 0
BBX 6 9 0 -1
BITMAP
70
88
88
08
10
20
20
00
20
ENDCHAR
STARTCHAR at
ENCODING 64
SWIDTH 443 0
DWIDTH 6 0
BBX 6 9 0 -1
BITMAP
70
88
88
98
A8
A8
B0
80
78
ENDCHAR
STARTCHAR A
ENCODING 65
SWIDTH 443 0
DWIDTH 6 0
BBX 6 9 0 -1
BITMAP
20
50
88
88
88
F8
88
88
88
ENDCHAR
STARTCHAR B
ENCODING 66
SWIDTH 443 0
DWIDTH 6 0
BBX 6 9 0 -1
BITMAP
F0
48
48
48
70
48
48
48
F0
ENDCHAR
STARTCHAR C
ENCODING 67
SWIDTH 443 0
DWIDTH 6 0
BBX 6 9 0 -1
BITMAP
70
88
80
80
80
80
80
88
70
ENDCHAR
STARTCHAR D
ENCODING 68
SWIDTH 443 0
DWIDTH 6 0
BBX 6 9 0 -1
BITMAP
F0
48
48
48
48
48
48
48
F0
ENDCHAR
STARTCHAR E
ENCODING 69
SWIDTH 443 0
DWIDTH 6 0
BBX 6 9 0 -1
BITMAP
F8
80
80
80
F0
80
80
80
F8
ENDCHAR
STARTCHAR F
ENCODING 70
SWIDTH 443 0
DWIDTH 6 0
BBX 6 9 0 -1
BITMAP
F8
80
80
80
F0
80
80
80
80
ENDCHAR
STARTCHAR G
ENCODING 71
SWIDTH 443 0
DWIDTH 6 0
BBX 6 9 0 -1
BITMAP
70
88
80
80
80
98
88
88
70
ENDCHAR
STARTCHAR H
ENCODING 72
SWIDTH 443 0
DWIDTH 6 0
BBX 6 9 0 -1
BITMAP
88
88
88
88
F8
88
88
88
88
ENDCHAR
STARTCHAR I
ENCODING 73
SWIDTH 443 0
DWIDTH 6 0
BBX 6 9 0 -1
BITMAP
70
20
20
20
20
20
20
20
70
ENDCHAR
STARTCHAR J
ENCODING 74
SWIDTH 443 0
DWIDTH 6 0
BBX 6 9 0 -1
BITMAP
38
10
10
10
10
10
10
90
60
ENDCHAR
STARTCHAR K
ENCODING 75
SWIDTH 443 0
DWIDTH 6 0
BBX 6 9 0 -1
BITMAP
88
88
90
A0
C0
A0
90
88
88
ENDCHAR
STARTCHAR L
ENCODING 76
SWIDTH 443 0
DWIDTH 6 0
BBX 6 9 0 -1
BITMAP
80
80
80
80
80
80
80
80
F8
ENDCHAR
STARTCHAR M
ENCODING 77
SWIDTH 443 0
DWIDTH 6 0
BBX 6 9 0 -1
BITMAP
88
88
D8
A8
A8
88
88
88
88
ENDCHAR
STARTCHAR N
ENCODING 78
SWIDTH 443 0
DWIDTH 6 0
BBX 6 9 0 -1
BITMAP
88
C8
C8
A8
A8
98
98
88
88
ENDCHAR
STARTCHAR O
ENCODING 79
SWIDTH 443 0
DWIDTH 6 0
BBX 6 9 0 -1
BITMAP
70
88
88
88
88
88
88
88
70
ENDCHAR
STARTCHAR P
ENCODING 80
SWIDTH 443 0
DWIDTH 6 0
BBX 6 9 0 -1
BITMAP
F0
88
88
88
F0
80
80
80
80
ENDCHAR
STARTCHAR Q
ENCODING 81
SWIDTH 443 0
DWIDTH 6 0
BBX 6 10 0 -2
BITMAP
70
88
88
88
88
88
88
A8
70
08
ENDCHAR
STARTCHAR R
ENCODING 82
SWIDTH 443 0
DWIDTH 6 0
BBX 6 9 0 -1
BITMAP
F0
88
88
88
F0
A0
90
88
88
ENDCHAR
STARTCHAR S
ENCODING 83
SWIDTH 443 0
DWIDTH 6 0
BBX 6 9 0 -1
BITMAP
70
88
80
80
70
08
08
88
70
ENDCHAR
STARTCHAR T
ENCODING 84
SWIDTH 443 0
DWIDTH 6 0
BBX 6 9 0 -1
BITMAP
F8
20
20
20
20
20
20
20
20
ENDCHAR
STARTCHAR U
ENCODING 85
SWIDTH 443 0
DWIDTH 6 0
BBX 6 9 0 -1
BITMAP
88
88
88
88
88
88
88
88
70
ENDCHAR
STARTCHAR V
ENCODING 86
SWIDTH 443 0
DWIDTH 6 0
BBX 6 9 0 -1
BITMAP
88
88
88
88
50
50
50
20
20
ENDCHAR
STARTCHAR W
ENCODING 87
SWIDTH 443 0
DWIDTH 6 0
BBX 6 9 0 -1
BITMAP
88
88
88
88
A8
A8
A8
D8
88
ENDCHAR
STARTCHAR X
ENCODING 88
SWIDTH 443 0
DWIDTH 6 0
BBX 6 9 0 -1
BITMAP
88
88
50
50
20
50
50
88
88
ENDCHAR
STARTCHAR Y
ENCODING 89
SWIDTH 443 0
DWIDTH 6 0
BBX 6 9 0 -1
BITMAP
88
88
50
50
20
20
20
20
20
ENDCHAR
STARTCHAR Z
ENCODING 90
SWIDTH 443 0
DWIDTH 6 0
BBX 6 9 0 -1
BITMAP
F8
08
10
10
20
40
40
80
F8
ENDCHAR
STARTCHAR bracketleft
ENCODING 91
SWIDTH 443 0
DWIDTH 6 0
BBX 6 9 0 -1
BITMAP
70
40
40
40
40
40
40
40
70
ENDCHAR
STARTCHAR backslash
ENCODING 92
SWIDTH 443 0
DWIDTH 6 0
BBX 6 9 0 -1
BITMAP
80
80
40
40
20
10
10
08
08
ENDCHAR
STARTCHAR bracketright
ENCODING 93
SWIDTH 443 0
DWIDTH 6 0
BBX 6 9 0 -1
BITMAP
70
10
10
10
10
10
10
10
70
ENDCHAR
STARTCHAR asciicircum
ENCODING 94
SWIDTH 443 0
DWIDTH 6 0
BBX 6 3 0 5
BITMAP
20
50
88
ENDCHAR
STARTCHAR underscore
ENCODING 95
SWIDTH 443 0
DWIDTH 6 0
BBX 6 1 0 -2
BITMAP
F8
ENDCHAR
STARTCHAR grave
ENCODING 96
SWIDTH 443 0
DWIDTH 6 0
BBX 6 3 0 5
BITMAP
30
10
08
ENDCHAR
STARTCHAR a
ENCODING 97
SWIDTH 443 0
DWIDTH 6 0
BBX 6 6 0 -1
BITMAP
70
08
78
88
88
78
ENDCHAR
STARTCHAR b
ENCODING 98
SWIDTH 443 0
DWIDTH 6 0
BBX 6 9 0 -1
BITMAP
80
80
80
F0
88
88
88
88
F0
ENDCHAR
STARTCHAR c
ENCODING 99
SWIDTH 443 0
DWIDTH 6 0
BBX 6 6 0 -1
BITMAP
70
88
80
80
88
70
ENDCHAR
STARTCHAR d
ENCODING 100
SWIDTH 443 0
DWIDTH 6 0
BBX 6 9 0 -1
BITMAP
08
08
08
78
88
88
88
88
78
ENDCHAR
STARTCHAR e
ENCODING 101
SWIDTH 443 0
DWIDTH 6 0
BBX 6 6 0 -1
BITMAP
70
88
F8
80
88
70
ENDCHAR
STARTCHAR f
ENCODING 102
SWIDTH 443 0
DWIDTH 6 0
BBX 6 9 0 -1
BITMAP
30
48
40
40
F0
40
40
40
40
ENDCHAR
STARTCHAR g
ENCODING 103
SWIDTH 443 0
DWIDTH 6 0
BBX 6 8 0 -3
BITMAP
70
88
88
88
78
08
88
70
ENDCHAR
STARTCHAR h
ENCODING 104
SWIDTH 443 0
DWIDTH 6 0
BBX 6 9 0 -1
BITMAP
80
80
80
B0
C8
88
88
88
88
ENDCHAR
STARTCHAR i
ENCODING 105
SWIDTH 443 0
DWIDTH 6 0
BBX 6 8 0 -1
BITMAP
20
00
60
20
20
20
20
70
ENDCHAR
STARTCHAR j
ENCODING 106
SWIDTH 443 0
DWIDTH 6 0
BBX 6 10 0 -3
BITMAP
10
00
30
10
10
10
10
90
90
60
ENDCHAR
STARTCHAR k
ENCODING 107
SWIDTH 443 0
DWIDTH 6 0
BBX 6 9 0 -1
BITMAP
80
80
80
90
A0
C0
A0
90
88
ENDCHAR
STARTCHAR l
ENCODING 108
SWIDTH 443 0
DWIDTH 6 0
BBX 6 9 0 -1
BITMAP
60
20
20
20
20
20
20
20
70
ENDCHAR
STARTCHAR m
ENCODING 109
SWIDTH 443 0
DWIDTH 6 0
BBX 6 6 0 -1
BITMAP
D0
A8
A8
A8
A8
88
ENDCHAR
STARTCHAR n
ENCODING 110
SWIDTH 443 0
DWIDTH 6 0
BBX 6 6 0 -1
BITMAP
B0
C8
88
88
88
88
ENDCHAR
STARTCHAR o
ENCODING 111
SWIDTH 443 0
DWIDTH 6 0
BBX 6 6 0 -1
BITMAP
70
88
88
88
88
70
ENDCHAR
STARTCHAR p
ENCODING 112
SWIDTH 443 0
DWIDTH 6 0
BBX 6 8 0 -3
BITMAP
F0
88
88
88
F0
80
80
80
ENDCHAR
STARTCHAR q
ENCODING 113
SWIDTH 443 0
DWIDTH 6 0
BBX 6 8 0 -3
BITMAP
78
88
88
88
78
08
08
08
ENDCHAR
STARTCHAR r
ENCODING 114
SWIDTH 443 0
DWIDTH 6 0
BBX 6 6 0 -1
BITMAP
B0
C8
80
80
80
80
ENDCHAR
STARTCHAR s
ENCODING 115
SWIDTH 443 0
DWIDTH 6 0
BBX 6 6 0 -1
BITMAP
70
88
60
10
88
70
ENDCHAR
STARTCHAR t
ENCODING 116
SWIDTH 443 0
DWIDTH 6 0
BBX 6 8 0 -1
BITMAP
40
40
F0
40
40
40
48
30
ENDCHAR
STARTCHAR u
ENCODING 117
SWIDTH 443 0
DWIDTH 6 0
BBX 6 6 0 -1
BITMAP
88
88
88
88
98
68
ENDCHAR
STARTCHAR v
ENCODING 118
SWIDTH 443 0
DWIDTH 6 0
BBX 6 6 0 -1
BITMAP
88
88
88
50
50
20
ENDCHAR
STARTCHAR w
ENCODING 119
SWIDTH 443 0
DWIDTH 6 0
BBX 6 6 0 -1
BITMAP
88
88
A8
A8
A8
50
ENDCHAR
STARTCHAR x
ENCODING 120
SWIDTH 443 0
DWIDTH 6 0
BBX 6 6 0 -1
BITMAP
88
50
20
20
50
88
ENDCHAR
STARTCHAR y
ENCODING 121
SWIDTH 443 0
DWIDTH 6 0
BBX 6 8 0 -3
BITMAP
88
88
88
98
68
08
88
70
ENDCHAR
STARTCHAR z
ENCODING 122
SWIDTH 443 0
DWIDTH 6 0
BBX 6 6 0 -1
BITMAP
F8
10
20
40
80
F8
ENDCHAR
STARTCHAR braceleft
ENCODING 123
SWIDTH 443 0
DWIDTH 6 0
BBX 6 9 0 -1
BITMAP
18
20
20
20
C0
20
20
20
18
ENDCHAR
STARTCHAR bar
ENCODING 124
SWIDTH 443 0
DWIDTH 6 0
BBX 6 9 0 -1
BITMAP
20
20
20
20
20
20
20
20
20
ENDCHAR
STARTCHAR braceright
ENCODING 125
SWIDTH 443 0
DWIDTH 6 0
BBX 6 9 0 -1
BITMAP
C0
20
20
20
18
20
20
20
C0
ENDCHAR
STARTCHAR asciitilde
ENCODING 126
SWIDTH 443 0
DWIDTH 6 0
BBX 6 3 0 5
BITMAP
48
A8
90
ENDCHAR
STARTCHAR bullet
ENCODING 149
SWIDTH 443 0
DWIDTH 6 0
BBX 6 5 0 1
BITMAP
70
F8
F8
F8
70
ENDCHAR
STARTCHAR lessequal
ENCODING 152
SWIDTH 443 0
DWIDTH 6 0
BBX 6 7 0 0
BITMAP
18
60
80
60
18
00
F8
ENDCHAR
STARTCHAR greaterequal
ENCODING 153
SWIDTH 443 0
DWIDTH 6 0
BBX 6 7 0 0
BITMAP
C0
30
08
30
C0
00
F8
ENDCHAR
STARTCHAR space
ENCODING 154
SWIDTH 443 0
DWIDTH 6 0
BBX 0 0 0 0
BITMAP
ENDCHAR
STARTCHAR degree
ENCODING 156
SWIDTH 443 0
DWIDTH 6 0
BBX 6 4 0 5
BITMAP
30
48
48
30
ENDCHAR
STARTCHAR twosuperior
ENCODING 157
SWIDTH 443 0
DWIDTH 6 0
BBX 6 5 0 4
BITMAP
40
A0
20
40
E0
ENDCHAR
STARTCHAR periodcentered
ENCODING 158
SWIDTH 443 0
DWIDTH 6 0
BBX 6 1 0 3
BITMAP
30
ENDCHAR
STARTCHAR afii10071
ENCODING 163
SWIDTH 443 0
DWIDTH 6 0
BBX 6 8 0 -1
BITMAP
50
00
70
88
F0
80
88
70
ENDCHAR
STARTCHAR afii10023
ENCODING 179
SWIDTH 443 0
DWIDTH 6 0
BBX 6 11 0 -1
BITMAP
50
00
F8
80
80
80
F0
80
80
80
F8
ENDCHAR
STARTCHAR copyright
ENCODING 191
SWIDTH 443 0
DWIDTH 6 0
BBX 6 8 0 0
BITMAP
30
48
94
A4
A4
94
48
30
ENDCHAR
STARTCHAR afii10096
ENCODING 192
SWIDTH 443 0
DWIDTH 6 0
BBX 6 6 0 -1
BITMAP
90
A8
A8
E8
A8
90
ENDCHAR
STARTCHAR afii10065
ENCODING 193
SWIDTH 443 0
DWIDTH 6 0
BBX 6 6 0 -1
BITMAP
70
08
78
88
98
68
ENDCHAR
STARTCHAR afii10066
ENCODING 194
SWIDTH 443 0
DWIDTH 6 0
BBX 6 9 0 -1
BITMAP
08
70
80
F0
88
88
88
88
70
ENDCHAR
STARTCHAR afii10088
ENCODING 195
SWIDTH 443 0
DWIDTH 6 0
BBX 6 8 0 -3
BITMAP
90
90
90
90
90
F8
08
08
ENDCHAR
STARTCHAR afii10069
ENCODING 196
SWIDTH 443 0
DWIDTH 6 0
BBX 6 7 0 -2
BITMAP
30
50
50
50
50
F8
88
ENDCHAR
STARTCHAR afii10070
ENCODING 197
SWIDTH 443 0
DWIDTH 6 0
BBX 6 6 0 -1
BITMAP
70
88
F8
80
88
70
ENDCHAR
STARTCHAR afii10086
ENCODING 198
SWIDTH 443 0
DWIDTH 6 0
BBX 6 10 0 -3
BITMAP
20
20
70
A8
A8
A8
A8
70
20
20
ENDCHAR
STARTCHAR afii10068
ENCODING 199
SWIDTH 443 0
DWIDTH 6 0
BBX 6 6 0 -1
BITMAP
F8
88
80
80
80
80
ENDCHAR
STARTCHAR afii10087
ENCODING 200
SWIDTH 443 0
DWIDTH 6 0
BBX 6 6 0 -1
BITMAP
88
50
20
50
88
88
ENDCHAR
STARTCHAR afii10074
ENCODING 201
SWIDTH 443 0
DWIDTH 6 0
BBX 6 6 0 -1
BITMAP
88
88
98
A8
C8
88
ENDCHAR
STARTCHAR afii10075
ENCODING 202
SWIDTH 443 0
DWIDTH 6 0
BBX 6 8 0 -1
BITMAP
50
20
88
88
98
A8
C8
88
ENDCHAR
STARTCHAR afii10076
ENCODING 203
SWIDTH 443 0
DWIDTH 6 0
BBX 6 6 0 -1
BITMAP
88
90
E0
90
88
88
ENDCHAR
STARTCHAR afii10077
ENCODING 204
SWIDTH 443 0
DWIDTH 6 0
BBX 6 6 0 -1
BITMAP
38
48
48
48
48
88
ENDCHAR
STARTCHAR afii10078
ENCODING 205
SWIDTH 443 0
DWIDTH 6 0
BBX 6 6 0 -1
BITMAP
88
D8
A8
A8
88
88
ENDCHAR
STARTCHAR afii10079
ENCODING 206
SWIDTH 443 0
DWIDTH 6 0
BBX 6 6 0 -1
BITMAP
88
88
F8
88
88
88
ENDCHAR
STARTCHAR afii10080
ENCODING 207
SWIDTH 443 0
DWIDTH 6 0
BBX 6 6 0 -1
BITMAP
70
88
88
88
88
70
ENDCHAR
STARTCHAR afii10081
ENCODING 208
SWIDTH 443 0
DWIDTH 6 0
BBX 6 6 0 -1
BITMAP
F8
88
88
88
88
88
ENDCHAR
STARTCHAR afii10097
ENCODING 209
SWIDTH 443 0
DWIDTH 6 0
BBX 6 6 0 -1
BITMAP
78
88
88
78
48
88
ENDCHAR
STARTCHAR afii10082
ENCODING 210
SWIDTH 443 0
DWIDTH 6 0
BBX 6 8 0 -3
BITMAP
F0
88
88
88
F0
80
80
80
ENDCHAR
STARTCHAR afii10083
ENCODING 211
SWIDTH 443 0
DWIDTH 6 0
BBX 6 6 0 -1
BITMAP
70
88
80
80
88
70
ENDCHAR
STARTCHAR afii10084
ENCODING 212
SWIDTH 443 0
DWIDTH 6 0
BBX 6 6 0 -1
BITMAP
F8
A8
20
20
20
20
ENDCHAR
STARTCHAR afii10085
ENCODING 213
SWIDTH 443 0
DWIDTH 6 0
BBX 6 8 0 -3
BITMAP
88
88
88
98
68
08
88
70
ENDCHAR
STARTCHAR afii10072
ENCODING 214
SWIDTH 443 0
DWIDTH 6 0
BBX 6 6 0 -1
BITMAP
A8
A8
70
70
A8
A8
ENDCHAR
STARTCHAR afii10067
ENCODING 215
SWIDTH 443 0
DWIDTH 6 0
BBX 6 6 0 -1
BITMAP
F0
88
F0
88
88
F0
ENDCHAR
STARTCHAR afii10094
ENCODING 216
SWIDTH 443 0
DWIDTH 6 0
BBX 6 6 0 -1
BITMAP
80
80
F0
88
88
F0
ENDCHAR
STARTCHAR afii10093
ENCODING 217
SWIDTH 443 0
DWIDTH 6 0
BBX 6 6 0 -1
BITMAP
88
88
E8
98
98
E8
ENDCHAR
STARTCHAR afii10073
ENCODING 218
SWIDTH 443 0
DWIDTH 6 0
BBX 6 6 0 -1
BITMAP
70
88
30
08
88
70
ENDCHAR
STARTCHAR afii10090
ENCODING 219
SWIDTH 443 0
DWIDTH 6 0
BBX 6 6 0 -1
BITMAP
A8
A8
A8
A8
A8
F8
ENDCHAR
STARTCHAR afii10095
ENCODING 220
SWIDTH 443 0
DWIDTH 6 0
BBX 6 6 0 -1
BITMAP
F0
08
38
08
08
F0
ENDCHAR
STARTCHAR afii10091
ENCODING 221
SWIDTH 443 0
DWIDTH 6 0
BBX 6 8 0 -3
BITMAP
A8
A8
A8
A8
A8
F8
08
08
ENDCHAR
STARTCHAR afii10089
ENCODING 222
SWIDTH 443 0
DWIDTH 6 0
BBX 6 6 0 -1
BITMAP
88
88
88
78
08
08
ENDCHAR
STARTCHAR afii10092
ENCODING 223
SWIDTH 443 0
DWIDTH 6 0
BBX 6 6 0 -1
BITMAP
C0
40
70
48
48
70
ENDCHAR
STARTCHAR afii10048
ENCODING 224
SWIDTH 443 0
DWIDTH 6 0
BBX 6 9 0 -1
BITMAP
90
A8
A8
A8
E8
A8
A8
A8
90
ENDCHAR
STARTCHAR afii10017
ENCODING 225
SWIDTH 443 0
DWIDTH 6 0
BBX 6 9 0 -1
BITMAP
20
50
88
88
88
F8
88
88
88
ENDCHAR
STARTCHAR afii10018
ENCODING 226
SWIDTH 443 0
DWIDTH 6 0
BBX 6 9 0 -1
BITMAP
F0
80
80
80
F0
88
88
88
F0
ENDCHAR
STARTCHAR afii10040
ENCODING 227
SWIDTH 443 0
DWIDTH 6 0
BBX 6 11 0 -3
BITMAP
90
90
90
90
90
90
90
90
F8
08
08
ENDCHAR
STARTCHAR afii10021
ENCODING 228
SWIDTH 443 0
DWIDTH 6 0
BBX 6 10 0 -2
BITMAP
30
50
50
50
50
50
50
50
F8
88
ENDCHAR
STARTCHAR afii10022
ENCODING 229
SWIDTH 443 0
DWIDTH 6 0
BBX 6 9 0 -1
BITMAP
F8
80
80
80
F0
80
80
80
F8
ENDCHAR
STARTCHAR afii10038
ENCODING 230
SWIDTH 443 0
DWIDTH 6 0
BBX 6 9 0 -1
BITMAP
20
70
A8
A8
A8
A8
70
20
20
ENDCHAR
STARTCHAR afii10020
ENCODING 231
SWIDTH 443 0
DWIDTH 6 0
BBX 6 9 0 -1
BITMAP
F8
88
80
80
80
80
80
80
80
ENDCHAR
STARTCHAR afii10039
ENCODING 232
SWIDTH 443 0
DWIDTH 6 0
BBX 6 9 0 -1
BITMAP
88
88
50
50
20
50
50
88
88
ENDCHAR
STARTCHAR afii10026
ENCODING 233
SWIDTH 443 0
DWIDTH 6 0
BBX 6 9 0 -1
BITMAP
88
98
98
A8
A8
A8
C8
C8
88
ENDCHAR
STARTCHAR afii10027
ENCODING 234
SWIDTH 443 0
DWIDTH 6 0
BBX 6 11 0 -1
BITMAP
50
20
88
98
98
A8
A8
A8
C8
C8
88
ENDCHAR
STARTCHAR afii10028
ENCODING 235
SWIDTH 443 0
DWIDTH 6 0
BBX 6 9 0 -1
BITMAP
88
88
90
A0
C0
A0
90
88
88
ENDCHAR
STARTCHAR afii10029
ENCODING 236
SWIDTH 443 0
DWIDTH 6 0
BBX 6 9 0 -1
BITMAP
38
48
48
48
48
48
48
88
88
ENDCHAR
STARTCHAR afii10030
ENCODING 237
SWIDTH 443 0
DWIDTH 6 0
BBX 6 9 0 -1
BITMAP
88
D8
D8
A8
A8
88
88
88
88
ENDCHAR
STARTCHAR afii10031
ENCODING 238
SWIDTH 443 0
DWIDTH 6 0
BBX 6 9 0 -1
BITMAP
88
88
88
88
F8
88
88
88
88
ENDCHAR
STARTCHAR afii10032
ENCODING 239
SWIDTH 443 0
DWIDTH 6 0
BBX 6 9 0 -1
BITMAP
70
88
88
88
88
88
88
88
70
ENDCHAR
STARTCHAR afii10033
ENCODING 240
SWIDTH 443 0
DWIDTH 6 0
BBX 6 9 0 -1
BITMAP
F8
88
88
88
88
88
88
88
88
ENDCHAR
STARTCHAR afii10049
ENCODING 241
SWIDTH 443 0
DWIDTH 6 0
BBX 6 9 0 -1
BITMAP
78
88
88
88
78
28
48
88
88
ENDCHAR
STARTCHAR afii10034
ENCODING 242
SWIDTH 443 0
DWIDTH 6 0
BBX 6 9 0 -1
BITMAP
F0
88
88
88
88
F0
80
80
80
ENDCHAR
STARTCHAR afii10035
ENCODING 243
SWIDTH 443 0
DWIDTH 6 0
BBX 6 9 0 -1
BITMAP
70
88
80
80
80
80
80
88
70
ENDCHAR
STARTCHAR afii10036
ENCODING 244
SWIDTH 443 0
DWIDTH 6 0
BBX 6 9 0 -1
BITMAP
F8
20
20
20
20
20
20
20
20
ENDCHAR
STARTCHAR afii10037
ENCODING 245
SWIDTH 443 0
DWIDTH 6 0
BBX 6 9 0 -1
BITMAP
88
88
88
88
88
78
08
88
70
ENDCHAR
STARTCHAR afii10024
ENCODING 246
SWIDTH 443 0
DWIDTH 6 0
BBX 6 9 0 -1
BITMAP
A8
A8
A8
70
20
70
A8
A8
A8
ENDCHAR
STARTCHAR afii10019
ENCODING 247
SWIDTH 443 0
DWIDTH 6 0
BBX 6 9 0 -1
BITMAP
F0
88
88
88
F0
88
88
88
F0
ENDCHAR
STARTCHAR afii10046
ENCODING 248
SWIDTH 443 0
DWIDTH 6 0
BBX 6 9 0 -1
BITMAP
80
80
80
80
F0
88
88
88
F0
ENDCHAR
STARTCHAR afii10045
ENCODING 249
SWIDTH 443 0
DWIDTH 6 0
BBX 6 9 0 -1
BITMAP
88
88
88
E8
98
98
98
98
E8
ENDCHAR
STARTCHAR afii10025
ENCODING 250
SWIDTH 443 0
DWIDTH 6 0
BBX 6 9 0 -1
BITMAP
70
88
08
08
30
08
08
88
70
ENDCHAR
STARTCHAR afii10042
ENCODING 251
SWIDTH 443 0
DWIDTH 6 0
BBX 6 9 0 -1
BITMAP
A8
A8
A8
A8
A8
A8
A8
A8
F8
ENDCHAR
STARTCHAR afii10047
ENCODING 252
SWIDTH 443 0
DWIDTH 6 0
BBX 6 9 0 -1
BITMAP
E0
10
08
08
78
08
08
10
E0
ENDCHAR
STARTCHAR afii10043
ENCODING 253
SWIDTH 443 0
DWIDTH 6 0
BBX 6 11 0 -3
BITMAP
A8
A8
A8
A8
A8
A8
A8
A8
F8
08
08
ENDCHAR
STARTCHAR afii10041
ENCODING 254
SWIDTH 443 0
DWIDTH 6 0
BBX 6 9 0 -1
BITMAP
88
88
88
88
78
08
08
08
08
ENDCHAR
STARTCHAR afii10044
ENCODING 255
SWIDTH 443 0
DWIDTH 6 0
BBX 6 9 0 -1
BITMAP
C0
40
40
40
70
48
48
48
70
ENDCHAR
ENDFONT
